<?xml version="1.0" encoding="UTF-8"?>
<svg version="1.1" xmlns="http://www.w3.org/2000/svg" width="125" height="142">
<path d="M0 0 C41.25 0 82.5 0 125 0 C125 46.86 125 93.72 125 142 C83.75 142 42.5 142 0 142 C0 95.14 0 48.28 0 0 Z " fill="#000000" transform="translate(0,0)"/>
<path d="M0 0 C0.66 0 1.32 0 2 0 C16.19426714 17.01601904 18.62590707 45.86320813 17 67 C15.99753304 74.25040059 14.02348942 81.4499692 9 87 C5.53188058 89.07950356 3.05102324 89.48612279 -1 89 C-8.80855733 85.17540049 -11.65057474 78.42860458 -14.5625 70.625 C-18.33010679 59.50848987 -19.44829325 47.58318157 -21 36 C-22.26860463 38.53720927 -22.24135968 40.51865694 -22.39453125 43.35546875 C-24.51120611 78.25611128 -24.51120611 78.25611128 -36 92 C-36.66 92 -37.32 92 -38 92 C-36.68105067 88.60582305 -35.21035872 85.33924461 -33.625 82.0625 C-23.36241655 59.35766935 -24.26822922 33.44705526 -23 9 C-22.34 9 -21.68 9 -21 9 C-20.78907715 10.19262451 -20.5781543 11.38524902 -20.36083984 12.61401367 C-19.55544873 17.15069698 -18.73546132 21.68465156 -17.91162109 26.21801758 C-17.56079221 28.15938777 -17.21363175 30.10142541 -16.87060547 32.04418945 C-15.00627867 42.58775024 -12.92233525 53.02931672 -10.1015625 63.36328125 C-9.77338028 64.62013985 -9.77338028 64.62013985 -9.43856812 65.90238953 C-7.63351642 72.21530758 -4.7074381 78.2925619 0 83 C4.05131243 83.46549014 4.05131243 83.46549014 8 83 C14.50204673 75.98463379 14.36014393 67.14263556 14.3125 58.125 C14.30686035 57.01310303 14.3012207 55.90120605 14.29541016 54.75561523 C14.10899496 41.99171132 12.01755472 30.56526418 8.125 18.4375 C7.77671143 17.34804077 7.77671143 17.34804077 7.42138672 16.23657227 C5.83038885 11.60106571 3.73365302 7.70623883 0.98388672 3.64868164 C0 2 0 2 0 0 Z " fill="#ED5EF4" transform="translate(73,25)"/>
<path d="M0 0 C0.33 0 0.66 0 1 0 C3.42300652 16.04423236 -0.22797199 31.32079161 -8.53515625 45.13671875 C-10 47 -10 47 -13 48 C-11.68105067 44.60582305 -10.21035872 41.33924461 -8.625 38.0625 C-3.01480375 25.6505614 -1.15679959 13.42496362 0 0 Z " fill="#E75EED" transform="translate(48,69)"/>
</svg>
